<?xml version="1.0" standalone="no"?>
<!DOCTYPE svg PUBLIC "-//W3C//DTD SVG 20010904//EN"
 "http://www.w3.org/TR/2001/REC-SVG-20010904/DTD/svg10.dtd">
<svg version="1.0" xmlns="http://www.w3.org/2000/svg"
 width="512.000000pt" height="512.000000pt" viewBox="0 0 512.000000 512.000000"
 preserveAspectRatio="xMidYMid meet">

<g transform="translate(0.000000,512.000000) scale(0.100000,-0.100000)"
fill="#000000" stroke="none">
<path d="M3774 5110 c-12 -4 -31 -21 -43 -36 -20 -25 -21 -37 -21 -240 l0
-214 -201 0 -202 0 -184 178 c-223 214 -226 217 -276 217 -31 0 -45 -7 -68
-33 -33 -37 -37 -75 -11 -112 16 -24 127 -133 369 -363 l92 -87 241 0 240 0 0
-210 c0 -223 6 -256 49 -280 28 -15 83 -12 107 5 44 30 45 44 42 599 l-3 528
-33 29 c-33 29 -60 35 -98 19z"/>
<path d="M932 4906 c-113 -28 -232 -131 -269 -235 l-17 -49 -143 -4 c-140 -3
-143 -3 -170 -31 l-28 -27 -3 -310 -3 -310 -37 0 c-65 0 -111 -19 -133 -53
-19 -31 -19 -51 -17 -564 l3 -533 27 -27 c23 -23 38 -28 93 -31 l65 -4 0 -122
0 -121 -50 -18 c-138 -49 -250 -214 -250 -367 1 -153 93 -298 231 -363 l69
-32 0 -151 0 -150 -58 -24 c-84 -35 -180 -134 -213 -220 -30 -81 -33 -199 -6
-277 37 -107 158 -228 246 -248 l30 -6 3 -189 3 -190 28 -27 27 -28 1380 -3
1380 -2 0 -60 c0 -52 4 -64 29 -92 l29 -33 536 -3 535 -3 33 29 c29 26 32 36
36 96 l4 66 208 0 c114 0 231 5 261 10 197 38 344 236 325 439 -6 74 -60 192
-106 236 l-30 28 41 44 c132 144 128 373 -8 515 l-36 37 42 46 c69 74 95 144
95 245 0 47 -5 104 -12 127 -30 103 -149 226 -244 255 l-38 11 0 483 0 482 28
7 c47 10 145 81 185 134 61 79 81 141 81 246 0 127 -26 189 -113 276 -46 45
-84 73 -123 89 l-57 23 -3 318 -3 319 -28 27 -27 28 -224 3 -224 3 -4 119 c-3
115 -4 121 -31 147 -38 38 -96 38 -134 0 l-28 -27 -3 -323 c-2 -177 0 -333 3
-345 15 -62 103 -93 151 -54 37 29 44 57 44 171 l0 111 155 0 155 0 0 -248 0
-248 -57 -24 c-40 -16 -78 -44 -124 -89 -87 -87 -113 -149 -113 -276 0 -105
20 -167 81 -246 40 -53 138 -124 185 -134 l28 -7 0 -109 0 -109 -248 0 -248 0
-18 73 c-47 199 -192 375 -384 464 -181 85 -403 85 -584 0 -192 -89 -337 -265
-384 -464 l-18 -73 -193 0 -193 0 0 745 0 745 160 0 c179 0 208 8 230 59 16
39 5 82 -26 112 l-26 24 -637 3 -637 3 -17 50 c-39 108 -164 214 -283 237 -71
15 -114 14 -182 -2z m153 -197 c77 -22 145 -115 145 -199 0 -48 -46 -127 -91
-157 -36 -24 -53 -28 -109 -28 -56 0 -73 4 -109 28 -45 30 -91 109 -91 157 0
81 61 169 135 195 49 17 69 18 120 4z m-434 -316 c36 -102 114 -189 207 -235
62 -31 73 -33 172 -33 99 0 110 2 172 33 93 46 171 133 207 235 l11 27 125 0
125 0 0 -965 0 -965 -261 0 c-159 0 -268 -4 -280 -10 -50 -27 -49 -6 -49 -920
0 -607 3 -858 11 -873 29 -56 33 -57 317 -57 l262 0 0 -120 0 -120 -585 0
-585 0 0 119 0 119 30 7 c89 20 210 141 247 248 27 78 24 196 -6 277 -33 86
-129 185 -213 220 l-58 24 0 150 0 151 69 32 c138 65 230 210 231 363 0 153
-112 318 -250 367 l-50 18 0 121 0 122 75 4 c66 3 78 7 102 31 l28 27 3 533
c2 513 2 533 -17 564 -23 36 -68 53 -143 53 l-48 0 0 240 0 240 70 0 c68 0 71
-1 81 -27z m1501 -788 l3 -815 28 -27 27 -28 264 -3 263 -3 12 -57 c7 -31 33
-99 57 -150 79 -165 229 -296 409 -358 72 -26 93 -28 215 -28 122 0 143 2 215
28 180 62 330 193 409 358 24 51 50 119 57 151 l12 57 249 0 248 0 0 -325 c0
-263 3 -331 14 -354 15 -27 53 -51 84 -51 70 0 152 -56 183 -125 23 -49 24
-94 4 -143 -30 -69 -78 -104 -187 -136 -91 -26 -121 -84 -79 -153 21 -33 26
-36 112 -53 169 -33 226 -235 94 -336 -21 -15 -71 -40 -113 -54 -63 -21 -80
-31 -96 -59 -15 -26 -17 -40 -10 -69 12 -46 46 -70 118 -82 32 -5 73 -19 91
-31 96 -66 111 -199 33 -293 -57 -70 -83 -76 -330 -76 l-218 0 0 65 c0 76 -14
111 -51 131 -41 21 -1057 21 -1098 0 -37 -20 -51 -55 -51 -131 l0 -65 -625 0
-625 0 0 120 0 120 263 0 c283 0 287 1 316 57 8 15 11 266 11 873 0 914 1 893
-49 920 -12 6 -121 10 -280 10 l-261 0 0 965 0 965 140 0 140 0 2 -815z
m-1642 -275 l0 -400 -100 0 -100 0 0 400 0 400 100 0 100 0 0 -400z m4301 380
c157 -81 132 -321 -39 -365 -181 -47 -320 154 -212 304 57 78 165 104 251 61z
m-4356 -1421 c77 -22 145 -115 145 -199 0 -48 -46 -127 -91 -157 -36 -24 -53
-28 -109 -28 -56 0 -73 4 -109 28 -45 30 -91 109 -91 157 0 81 61 169 135 195
49 17 69 18 120 4z m1805 -729 l0 -730 -490 0 -490 0 0 730 0 730 490 0 490 0
0 -730z m-1773 -369 c52 -24 100 -88 108 -145 29 -190 -206 -308 -337 -168
-119 128 -32 332 142 332 25 0 64 -9 87 -19z m3633 -891 l0 -100 -400 0 -400
0 0 100 0 100 400 0 400 0 0 -100z"/>
<path d="M1820 2063 c-21 -21 -109 -129 -194 -241 -166 -216 -173 -231 -141
-291 20 -40 35 -45 162 -51 l112 -5 -113 -147 c-63 -81 -117 -159 -120 -173
-10 -41 22 -97 65 -113 67 -25 86 -8 269 229 91 117 175 228 188 246 29 43 29
94 -2 130 -23 27 -28 28 -145 33 l-121 5 94 122 c111 143 116 152 116 193 0
42 -15 67 -50 85 -47 24 -77 19 -120 -22z"/>
</g>
</svg>
